<?xml version="1.0" encoding="UTF-8"?>
<!DOCTYPE svg PUBLIC "-//W3C//DTD SVG 1.1//EN" "http://www.w3.org/Graphics/SVG/1.1/DTD/svg11.dtd">
<svg xmlns="http://www.w3.org/2000/svg" version="1.1" width="512px" height="512px" style="shape-rendering:geometricPrecision; text-rendering:geometricPrecision; image-rendering:optimizeQuality; fill-rule:evenodd; clip-rule:evenodd" xmlns:xlink="http://www.w3.org/1999/xlink">
<g><path style="opacity:0.791" fill="#000000" d="M 246.5,147.5 C 280.316,146.701 313.983,148.534 347.5,153C 359.827,155.22 371.494,159.22 382.5,165C 399.5,186.327 417.5,206.66 436.5,226C 443.015,226.832 446.182,230.332 446,236.5C 454.024,247.826 464.857,254.326 478.5,256C 481.321,258.141 482.654,260.975 482.5,264.5C 479.482,264.335 476.482,264.502 473.5,265C 477.774,273.547 481.774,282.214 485.5,291C 483.679,293.456 483.012,296.289 483.5,299.5C 485.792,299.244 487.959,299.577 490,300.5C 490.667,304.833 490.667,309.167 490,313.5C 487.931,314.264 485.764,314.764 483.5,315C 481.247,322.631 476.081,325.797 468,324.5C 466.124,325.619 465.291,327.286 465.5,329.5C 453.822,330.103 442.155,330.937 430.5,332C 421.419,356.212 404.086,365.878 378.5,361C 364.604,356.604 355.604,347.437 351.5,333.5C 330.164,333.333 308.831,333.5 287.5,334C 286.333,335.833 285.167,337.667 284,339.5C 283.044,340.894 281.711,341.561 280,341.5C 232.807,335.449 185.474,332.449 138,332.5C 128.68,356.748 111.18,366.248 85.5,361C 68.865,354.871 59.5317,343.038 57.5,325.5C 50.7476,325.258 44.0809,324.425 37.5,323C 32.2926,321.419 29.9593,317.919 30.5,312.5C 25.57,312.803 20.7367,312.469 16,311.5C 15.3333,307.5 15.3333,303.5 16,299.5C 20.0659,298.536 24.2325,298.203 28.5,298.5C 29.0083,291.399 28.0083,284.566 25.5,278C 26.2601,272.829 27.0935,267.662 28,262.5C 29.0113,261.663 30.1779,261.33 31.5,261.5C 32.3331,259.248 32.3331,257.081 31.5,255C 32.8333,254.667 34.1667,254.333 35.5,254C 39.8333,249 44.1667,244 48.5,239C 59.0813,231.545 70.748,226.545 83.5,224C 101.107,221.229 118.774,218.895 136.5,217C 150.63,200.865 164.797,184.699 179,168.5C 180.559,166.783 181.392,164.783 181.5,162.5C 182.552,162.649 183.552,162.483 184.5,162C 187.99,159.089 191.656,156.422 195.5,154C 197.788,153.178 200.122,152.511 202.5,152C 217.285,150.155 231.952,148.655 246.5,147.5 Z M 384.5,180.5 C 380.728,177.906 377.061,175.073 373.5,172C 351.674,161.8 328.674,156.634 304.5,156.5C 304.739,154.533 304.406,152.699 303.5,151C 321.646,151.457 339.646,153.457 357.5,157C 364.514,159.007 371.18,161.84 377.5,165.5C 378.314,167.766 378.814,170.1 379,172.5C 381.054,175.047 382.887,177.714 384.5,180.5 Z M 193.5,157.5 C 194.586,157.62 195.253,158.287 195.5,159.5C 193.369,162.163 190.869,164.496 188,166.5C 187.535,165.069 186.701,163.903 185.5,163C 188.07,160.913 190.737,159.08 193.5,157.5 Z M 252.5,157.5 C 276.208,157.215 299.875,158.048 323.5,160C 342.123,161.32 359.457,166.653 375.5,176C 378.667,178.833 381.833,181.667 385,184.5C 397.315,199.136 409.149,214.136 420.5,229.5C 418.833,229.833 417.167,230.167 415.5,230.5C 412.989,230.712 410.822,230.045 409,228.5C 400.439,212.538 390.272,197.704 378.5,184C 367.497,174.498 354.83,168.165 340.5,165C 331.274,162.92 321.94,161.587 312.5,161C 286.5,160.333 260.5,160.333 234.5,161C 223.117,161.459 211.784,162.459 200.5,164C 196.084,166.412 192.251,169.578 189,173.5C 188.333,171.5 188.333,169.5 189,167.5C 191.564,165.273 194.397,163.439 197.5,162C 215.94,159.88 234.273,158.38 252.5,157.5 Z M 265.5,163.5 C 272.881,163.314 280.214,163.814 287.5,165C 288.931,165.465 290.097,166.299 291,167.5C 293.021,187.458 294.521,207.458 295.5,227.5C 248.83,227.727 202.164,227.894 155.5,228C 167.952,207.548 181.952,188.215 197.5,170C 199.957,168.438 202.624,167.438 205.5,167C 225.653,165.774 245.653,164.607 265.5,163.5 Z M 382.5,196.5 C 381.957,196.56 381.624,196.893 381.5,197.5C 386.768,204.037 390.435,211.37 392.5,219.5C 392.152,223.694 390.152,226.861 386.5,229C 356.819,229.224 327.153,228.724 297.5,227.5C 296.4,209.5 295.233,191.5 294,173.5C 293.853,170.429 293.02,167.596 291.5,165C 312.311,164.021 332.644,166.687 352.5,173C 364.643,178.222 374.643,186.055 382.5,196.5 Z M 182.5,166.5 C 185.047,169.771 184.88,173.105 182,176.5C 172.212,189.29 162.045,201.79 151.5,214C 148.59,215.753 145.924,215.253 143.5,212.5C 156.523,197.147 169.523,181.814 182.5,166.5 Z M 386.5,174.5 C 384.243,173.438 383.077,171.772 383,169.5C 384.802,170.789 385.969,172.456 386.5,174.5 Z M 219.5,172.5 C 240.234,172.035 260.9,172.535 281.5,174C 283.81,175.637 285.31,177.804 286,180.5C 287.133,192.485 287.466,204.485 287,216.5C 286.535,217.931 285.701,219.097 284.5,220C 262.503,220.5 240.503,220.667 218.5,220.5C 219.337,204.794 219.671,188.794 219.5,172.5 Z M 207.5,173.5 C 209.5,173.5 211.5,173.5 213.5,173.5C 213.5,189.167 213.5,204.833 213.5,220.5C 207.176,219.975 200.842,219.475 194.5,219C 190.375,212.584 186.375,206.084 182.5,199.5C 187.475,192.69 192.642,186.024 198,179.5C 200.855,176.773 204.022,174.773 207.5,173.5 Z M 303.5,175.5 C 332.182,172.272 356.015,181.272 375,202.5C 378.429,206.857 380.929,211.69 382.5,217C 381.773,218.399 381.273,219.899 381,221.5C 377.194,223.023 373.194,223.69 369,223.5C 351.174,222.793 333.34,222.293 315.5,222C 307.154,223.265 302.987,219.765 303,211.5C 302.074,200.173 301.741,188.84 302,177.5C 302.717,176.956 303.217,176.289 303.5,175.5 Z M 386.5,182.5 C 389.903,184.9 392.57,187.9 394.5,191.5C 391.097,189.1 388.43,186.1 386.5,182.5 Z M 395.5,192.5 C 397.262,193.262 398.262,194.596 398.5,196.5C 396.738,195.738 395.738,194.404 395.5,192.5 Z M 399.5,197.5 C 402.999,200.166 405.999,203.333 408.5,207C 411.226,207.182 413.893,207.682 416.5,208.5C 414.851,210.65 413.018,212.65 411,214.5C 407.147,208.776 403.313,203.109 399.5,197.5 Z M 408.5,199.5 C 409.962,200.458 411.295,201.624 412.5,203C 410.159,203.168 408.826,202.001 408.5,199.5 Z M 178.5,204.5 C 180.074,204.937 181.241,205.937 182,207.5C 184.167,211.167 186.333,214.833 188.5,218.5C 174.487,221.17 171.154,216.503 178.5,204.5 Z M 391.5,209.5 C 392.906,209.973 393.573,210.973 393.5,212.5C 392.094,212.027 391.427,211.027 391.5,209.5 Z M 416.5,211.5 C 417.239,211.369 417.906,211.536 418.5,212C 416.92,214.295 414.92,215.628 412.5,216C 414.041,214.629 415.375,213.129 416.5,211.5 Z M 393.5,212.5 C 397.059,217.939 400.392,223.606 403.5,229.5C 399.495,230.527 395.495,230.361 391.5,229C 395.374,223.737 396.041,218.237 393.5,212.5 Z M 156.5,215.5 C 154.614,219.399 152.281,223.066 149.5,226.5C 145.691,223.858 142.024,221.025 138.5,218C 139.025,217.308 139.692,216.808 140.5,216.5C 146.134,220.638 151.467,220.304 156.5,215.5 Z M 399.5,217.5 C 401.25,218.659 402.25,220.326 402.5,222.5C 400.75,221.341 399.75,219.674 399.5,217.5 Z M 416.5,217.5 C 416.5,218.5 416.5,219.5 416.5,220.5C 413.833,219.5 413.833,218.5 416.5,217.5 Z M 129.5,219.5 C 133.962,221.305 136.628,224.638 137.5,229.5C 114.315,229.065 91.6484,232.231 69.5,239C 63.3898,241.221 57.7231,244.221 52.5,248C 49.4459,248.821 46.4459,248.655 43.5,247.5C 52.3945,238.214 63.0612,231.714 75.5,228C 93.5125,224.357 111.512,221.524 129.5,219.5 Z M 134.5,220.5 C 135.251,219.427 136.251,219.26 137.5,220C 141.167,223 144.833,226 148.5,229C 145.518,229.498 142.518,229.665 139.5,229.5C 139.072,225.756 137.405,222.756 134.5,220.5 Z M 156.5,221.5 C 156.573,223.027 155.906,224.027 154.5,224.5C 154.427,222.973 155.094,221.973 156.5,221.5 Z M 417.5,221.5 C 418.906,221.973 419.573,222.973 419.5,224.5C 418.094,224.027 417.427,223.027 417.5,221.5 Z M 420.5,225.5 C 421.265,225.923 422.098,226.257 423,226.5C 424.963,225.375 426.796,224.041 428.5,222.5C 428.833,222.833 429.167,223.167 429.5,223.5C 427.833,225.833 425.833,227.833 423.5,229.5C 421.712,228.717 420.712,227.384 420.5,225.5 Z M 154.5,224.5 C 154.467,227.097 153.467,228.097 151.5,227.5C 152.188,226.145 153.188,225.145 154.5,224.5 Z M 403.5,224.5 C 405.179,226 406.512,227.833 407.5,230C 405.156,229.235 403.823,227.402 403.5,224.5 Z M 437.5,231.5 C 435.271,232.055 433.605,233.389 432.5,235.5C 436.833,239.833 441.167,244.167 445.5,248.5C 447.323,247.509 448.823,246.176 450,244.5C 456.16,248.906 455.493,252.239 448,254.5C 440.865,246.364 433.365,238.53 425.5,231C 427.667,228.833 429.833,226.667 432,224.5C 434.454,226.441 436.287,228.775 437.5,231.5 Z M 438.5,229.5 C 438.897,228.475 439.563,228.308 440.5,229C 442.638,230.422 443.805,232.255 444,234.5C 442.296,232.627 440.463,230.96 438.5,229.5 Z M 210.5,229.5 C 238.835,229.333 267.169,229.5 295.5,230C 296.591,232.064 296.758,234.231 296,236.5C 288.246,235.353 280.413,235.186 272.5,236C 269.906,238.848 270.573,240.848 274.5,242C 281.55,242.797 288.55,242.63 295.5,241.5C 296.474,243.743 296.808,246.076 296.5,248.5C 247.837,247.788 199.17,247.454 150.5,247.5C 151.01,241.781 152.343,236.281 154.5,231C 173.338,230.832 192.004,230.332 210.5,229.5 Z M 297.5,230.5 C 300.649,229.835 303.982,229.502 307.5,229.5C 339.74,230.148 371.907,231.148 404,232.5C 405.569,231.878 407.236,231.544 409,231.5C 414.161,232.06 419.327,232.56 424.5,233C 431.532,239.697 438.198,246.697 444.5,254C 395.867,251.592 347.201,249.759 298.5,248.5C 298.823,242.31 298.49,236.31 297.5,230.5 Z M 145.5,230.5 C 147.857,230.337 150.19,230.503 152.5,231C 150.343,236.281 149.01,241.781 148.5,247.5C 144.154,247.666 139.821,247.499 135.5,247C 137.737,242.095 139.07,236.928 139.5,231.5C 141.735,231.795 143.735,231.461 145.5,230.5 Z M 117.5,231.5 C 124.167,231.5 130.833,231.5 137.5,231.5C 137.021,237.041 135.687,242.374 133.5,247.5C 107.84,248.666 82.1732,248.833 56.5,248C 63.5624,243.303 71.2291,239.969 79.5,238C 92.1198,234.699 104.786,232.532 117.5,231.5 Z M 437.5,231.5 C 438.833,232.167 439.833,233.167 440.5,234.5C 438.5,234.5 437.5,233.5 437.5,231.5 Z M 440.5,234.5 C 441.833,235.167 442.833,236.167 443.5,237.5C 441.5,237.5 440.5,236.5 440.5,234.5 Z M 273.5,237.5 C 277.884,237.174 282.217,237.508 286.5,238.5C 284.333,238.833 282.167,239.167 280,239.5C 277.39,239.467 275.223,238.8 273.5,237.5 Z M 288.5,237.5 C 290.75,237.181 292.75,237.681 294.5,239C 291.558,241.402 289.558,240.902 288.5,237.5 Z M 443.5,237.5 C 444.5,237.833 445.167,238.5 445.5,239.5C 444.167,239.5 443.5,238.833 443.5,237.5 Z M 129.5,249.5 C 135.868,249.17 142.202,249.504 148.5,250.5C 147.348,267.456 147.181,284.456 148,301.5C 148.799,309.278 152.965,314.111 160.5,316C 177,316.167 193.5,316.333 210,316.5C 237.6,316.778 265.1,315.945 292.5,314C 295.187,312.125 297.021,309.625 298,306.5C 298.5,287.836 298.667,269.17 298.5,250.5C 348.567,251.296 398.567,253.463 448.5,257C 450.833,259.333 453.167,261.667 455.5,264C 453.139,264.197 451.472,265.364 450.5,267.5C 456.456,277.366 461.456,287.7 465.5,298.5C 461.878,299.325 458.211,299.825 454.5,300C 454,300.5 453.5,301 453,301.5C 452.333,305.167 452.333,308.833 453,312.5C 453.5,313 454,313.5 454.5,314C 459.489,314.499 464.489,314.666 469.5,314.5C 469.747,317.505 468.747,320.005 466.5,322C 460.153,322.345 453.82,322.845 447.5,323.5C 442.284,323.925 438.451,321.925 436,317.5C 426.548,280.357 403.714,267.857 367.5,280C 360.242,285.256 354.409,291.756 350,299.5C 347.791,307.549 345.458,315.549 343,323.5C 341.019,326.745 338.186,328.911 334.5,330C 273.5,330.667 212.5,330.667 151.5,330C 148.272,328.437 146.105,325.937 145,322.5C 142.034,310.597 137.701,299.264 132,288.5C 119.496,274.222 103.996,269.388 85.5,274C 75.5884,276.875 67.4218,282.375 61,290.5C 56.8831,298.187 53.5497,306.187 51,314.5C 48.1118,317.681 45.7784,317.681 44,314.5C 43.1937,298.141 43.527,281.808 45,265.5C 46.1986,260.101 48.6986,255.434 52.5,251.5C 78.3301,250.833 103.997,250.167 129.5,249.5 Z M 150.5,249.5 C 199.331,249.379 247.997,249.712 296.5,250.5C 296.667,269.17 296.5,287.836 296,306.5C 294.321,310.77 291.155,313.27 286.5,314C 244.5,314.667 202.5,314.667 160.5,314C 154.59,312.421 151.09,308.588 150,302.5C 149.194,284.79 149.361,267.123 150.5,249.5 Z M 41.5,250.5 C 44.5184,250.335 47.5184,250.502 50.5,251C 47.1929,253.778 45.0262,257.278 44,261.5C 42.7266,268.779 41.8933,276.112 41.5,283.5C 34.3189,283.845 31.4856,287.511 33,294.5C 35.5733,296.306 38.4066,297.64 41.5,298.5C 41.3333,298.833 41.1667,299.167 41,299.5C 37.6064,298.544 34.1064,298.211 30.5,298.5C 28.895,289.36 29.395,280.36 32,271.5C 32.8725,274.618 34.0392,277.618 35.5,280.5C 36.6888,281.429 38.0222,281.762 39.5,281.5C 39.8178,272.249 39.4845,263.083 38.5,254C 39.7101,252.961 40.7101,251.794 41.5,250.5 Z M 456.5,250.5 C 458.89,251.446 461.056,252.779 463,254.5C 473.608,267.71 479.774,282.71 481.5,299.5C 478.102,299.82 474.768,299.487 471.5,298.5C 472.325,297.614 473.325,297.281 474.5,297.5C 473.689,288.202 470.855,279.535 466,271.5C 460.298,266.989 455.131,261.822 450.5,256C 452.996,254.669 454.996,252.836 456.5,250.5 Z M 466.5,256.5 C 472.414,254.607 477.081,256.441 480.5,262C 477.167,262.667 473.833,262.667 470.5,262C 469.303,259.985 467.97,258.151 466.5,256.5 Z M 34.5,256.5 C 35.5,256.5 36.5,256.5 37.5,256.5C 37.8166,284.393 36.8166,284.393 34.5,256.5 Z M 123.5,270.5 C 124.262,272.262 125.596,273.262 127.5,273.5C 129.167,275.833 131.167,277.833 133.5,279.5C 133.5,280.167 133.5,280.833 133.5,281.5C 132.5,280.833 131.5,280.167 130.5,279.5C 129.089,277.086 127.089,275.419 124.5,274.5C 124.027,273.094 123.027,272.427 121.5,272.5C 119.3,270.36 116.633,268.86 113.5,268C 102.833,264.667 92.1667,264.667 81.5,268C 77.6536,269.086 74.3203,270.919 71.5,273.5C 69.8333,274.167 68.1667,274.833 66.5,275.5C 67.1667,274.5 67.8333,273.5 68.5,272.5C 86.4767,261.727 104.81,261.061 123.5,270.5 Z M 415.5,274.5 C 401.908,268.401 387.908,267.234 373.5,271C 370.316,271.754 367.649,273.254 365.5,275.5C 364.167,275.833 362.833,276.167 361.5,276.5C 369.809,269.661 379.475,266.328 390.5,266.5C 396.25,267.25 401.917,268.417 407.5,270C 410.684,270.754 413.351,272.254 415.5,274.5 Z M 454.5,270.5 C 452.727,269.686 452.227,268.352 453,266.5C 453.791,267.745 454.291,269.078 454.5,270.5 Z M 456.5,268.5 C 458.591,268.318 460.591,268.652 462.5,269.5C 463.959,271.583 465.292,273.75 466.5,276C 464.5,276.667 462.5,276.667 460.5,276C 458.506,273.842 457.172,271.342 456.5,268.5 Z M 417.5,275.5 C 419.027,275.427 420.027,276.094 420.5,277.5C 418.973,277.573 417.973,276.906 417.5,275.5 Z M 360.5,277.5 C 359.833,278.5 359.167,279.5 358.5,280.5C 357.609,281.11 356.609,281.443 355.5,281.5C 356.585,279.413 358.251,278.08 360.5,277.5 Z M 461.5,277.5 C 463.604,277.201 465.604,277.534 467.5,278.5C 468.601,280.642 469.601,282.808 470.5,285C 464.538,286.336 461.538,283.836 461.5,277.5 Z M 422.5,279.5 C 424.027,279.427 425.027,280.094 425.5,281.5C 423.973,281.573 422.973,280.906 422.5,279.5 Z M 460.5,281.5 C 461.931,282.78 462.598,284.447 462.5,286.5C 461.069,285.22 460.402,283.553 460.5,281.5 Z M 462.5,286.5 C 464.267,288.792 465.267,291.458 465.5,294.5C 463.733,292.208 462.733,289.542 462.5,286.5 Z M 35.5,288.5 C 36.905,290.225 37.405,292.225 37,294.5C 34.5213,292.912 34.0213,290.912 35.5,288.5 Z M 97.5,296.5 C 113.081,297.914 121.414,306.414 122.5,322C 119.618,341.854 108.284,349.52 88.5,345C 72.3793,335.016 69.2126,321.849 79,305.5C 84.2756,300.444 90.4423,297.444 97.5,296.5 Z M 383.5,297.5 C 402.145,295.318 412.812,303.484 415.5,322C 413.845,337.322 405.345,345.489 390,346.5C 374.941,344.941 366.774,336.608 365.5,321.5C 366.578,309.762 372.578,301.762 383.5,297.5 Z M 17.5,300.5 C 24.8333,300.5 32.1667,300.5 39.5,300.5C 42.1709,310.496 38.5042,314.162 28.5,311.5C 18.4958,314.162 14.8291,310.496 17.5,300.5 Z M 95.5,301.5 C 113.085,303.583 119.918,313.249 116,330.5C 109.292,341.137 100.125,343.971 88.5,339C 78.4862,331.95 75.9862,322.784 81,311.5C 83.1667,309.333 85.3333,307.167 87.5,305C 90.3093,303.907 92.976,302.74 95.5,301.5 Z M 388.5,301.5 C 401.688,302.355 409.022,309.355 410.5,322.5C 406.656,339.255 396.656,344.755 380.5,339C 370.284,331.35 368.118,321.85 374,310.5C 378.015,305.946 382.848,302.946 388.5,301.5 Z M 455.5,301.5 C 466.5,301.5 477.5,301.5 488.5,301.5C 488.5,305.167 488.5,308.833 488.5,312.5C 477.495,312.667 466.495,312.5 455.5,312C 454.203,308.501 454.203,305.001 455.5,301.5 Z M 94.5,307.5 C 104.732,306.929 110.732,311.596 112.5,321.5C 102.81,321.832 93.1437,321.498 83.5,320.5C 85.0795,314.307 88.7462,309.974 94.5,307.5 Z M 386.5,307.5 C 396.94,306.619 402.94,311.286 404.5,321.5C 395.167,321.5 385.833,321.5 376.5,321.5C 376.899,314.691 380.232,310.025 386.5,307.5 Z M 32.5,312.5 C 35.5184,312.335 38.5184,312.502 41.5,313C 45.7097,322.863 43.3764,324.863 34.5,319C 32.771,317.211 32.1043,315.044 32.5,312.5 Z M 471.5,314.5 C 474.85,314.335 478.183,314.502 481.5,315C 479.592,320.821 475.592,323.154 469.5,322C 471.113,319.772 471.78,317.272 471.5,314.5 Z"/></g>
<g><path style="opacity:0.796" fill="#000000" d="M 255.5,168.5 C 263.174,168.334 270.841,168.5 278.5,169C 284.562,170.062 288.395,173.562 290,179.5C 291.066,192.155 291.4,204.822 291,217.5C 290.167,221 288,223.167 284.5,224C 248.827,224.569 213.16,224.236 177.5,223C 172.66,221.663 170.327,218.496 170.5,213.5C 170.804,209.886 171.971,206.552 174,203.5C 181.926,192.791 190.426,182.625 199.5,173C 201.717,171.725 204.051,170.725 206.5,170C 223.005,169.831 239.338,169.331 255.5,168.5 Z M 219.5,172.5 C 219.671,188.794 219.337,204.794 218.5,220.5C 240.503,220.667 262.503,220.5 284.5,220C 285.701,219.097 286.535,217.931 287,216.5C 287.466,204.485 287.133,192.485 286,180.5C 285.31,177.804 283.81,175.637 281.5,174C 260.9,172.535 240.234,172.035 219.5,172.5 Z M 207.5,173.5 C 204.022,174.773 200.855,176.773 198,179.5C 192.642,186.024 187.475,192.69 182.5,199.5C 186.375,206.084 190.375,212.584 194.5,219C 200.842,219.475 207.176,219.975 213.5,220.5C 213.5,204.833 213.5,189.167 213.5,173.5C 211.5,173.5 209.5,173.5 207.5,173.5 Z M 178.5,204.5 C 171.154,216.503 174.487,221.17 188.5,218.5C 186.333,214.833 184.167,211.167 182,207.5C 181.241,205.937 180.074,204.937 178.5,204.5 Z"/></g>
<g><path style="opacity:0.754" fill="#000000" d="M 303.5,171.5 C 336.475,167.75 362.641,179.084 382,205.5C 385.496,211.126 386.33,217.126 384.5,223.5C 381.412,226.861 377.578,228.195 373,227.5C 350.072,226.999 327.239,225.832 304.5,224C 302.19,222.363 300.69,220.196 300,217.5C 298.211,203.882 297.545,190.216 298,176.5C 299.107,173.887 300.94,172.22 303.5,171.5 Z M 303.5,175.5 C 303.217,176.289 302.717,176.956 302,177.5C 301.741,188.84 302.074,200.173 303,211.5C 302.987,219.765 307.154,223.265 315.5,222C 333.34,222.293 351.174,222.793 369,223.5C 373.194,223.69 377.194,223.023 381,221.5C 381.273,219.899 381.773,218.399 382.5,217C 380.929,211.69 378.429,206.857 375,202.5C 356.015,181.272 332.182,172.272 303.5,175.5 Z"/></g>
<g><path style="opacity:0.519" fill="#000000" d="M 51.5,255.5 C 57.3133,255.062 58.98,257.562 56.5,263C 49.745,263.756 48.0783,261.256 51.5,255.5 Z"/></g>
<g><path style="opacity:0.245" fill="#000000" d="M 123.5,270.5 C 104.81,261.061 86.4767,261.727 68.5,272.5C 76.6527,265.725 86.1527,262.391 97,262.5C 102.556,262.954 108.056,263.787 113.5,265C 117.346,266.086 120.68,267.919 123.5,270.5 Z"/></g>
<g><path style="opacity:0.194" fill="#000000" d="M 121.5,272.5 C 104.758,264.835 88.091,265.168 71.5,273.5C 74.3203,270.919 77.6536,269.086 81.5,268C 92.1667,264.667 102.833,264.667 113.5,268C 116.633,268.86 119.3,270.36 121.5,272.5 Z"/></g>
<g><path style="opacity:0.26" fill="#000000" d="M 435.5,296.5 C 417.841,270.95 394.508,263.95 365.5,275.5C 367.649,273.254 370.316,271.754 373.5,271C 387.908,267.234 401.908,268.401 415.5,274.5C 413.351,272.254 410.684,270.754 407.5,270C 401.917,268.417 396.25,267.25 390.5,266.5C 379.475,266.328 369.809,269.661 361.5,276.5C 360.833,276.5 360.5,276.833 360.5,277.5C 358.251,278.08 356.585,279.413 355.5,281.5C 356.609,281.443 357.609,281.11 358.5,280.5C 349.398,291.366 342.898,303.7 339,317.5C 345.454,274.721 369.621,258.888 411.5,270C 429.778,279.517 440.778,294.517 444.5,315C 444,315.5 443.5,316 443,316.5C 440.765,309.703 438.265,303.036 435.5,296.5 Z M 415.5,274.5 C 401.908,268.401 387.908,267.234 373.5,271C 370.316,271.754 367.649,273.254 365.5,275.5C 364.167,275.833 362.833,276.167 361.5,276.5C 369.809,269.661 379.475,266.328 390.5,266.5C 396.25,267.25 401.917,268.417 407.5,270C 410.684,270.754 413.351,272.254 415.5,274.5 Z M 417.5,275.5 C 419.027,275.427 420.027,276.094 420.5,277.5C 418.973,277.573 417.973,276.906 417.5,275.5 Z M 360.5,277.5 C 359.833,278.5 359.167,279.5 358.5,280.5C 357.609,281.11 356.609,281.443 355.5,281.5C 356.585,279.413 358.251,278.08 360.5,277.5 Z M 422.5,279.5 C 424.027,279.427 425.027,280.094 425.5,281.5C 423.973,281.573 422.973,280.906 422.5,279.5 Z"/></g>
<g><path style="opacity:0.262" fill="#000000" d="M 123.5,270.5 C 125.404,270.738 126.738,271.738 127.5,273.5C 125.596,273.262 124.262,272.262 123.5,270.5 Z"/></g>
<g><path style="opacity:0.167" fill="#000000" d="M 68.5,272.5 C 67.8333,273.5 67.1667,274.5 66.5,275.5C 65.8333,275.5 65.5,275.833 65.5,276.5C 64.8333,276.5 64.5,276.833 64.5,277.5C 63.8333,277.5 63.5,277.833 63.5,278.5C 62.8333,278.5 62.5,278.833 62.5,279.5C 61.8333,279.5 61.5,279.833 61.5,280.5C 60.8333,280.5 60.5,280.833 60.5,281.5C 59.8333,281.5 59.5,281.833 59.5,282.5C 59.1667,282.5 58.8333,282.5 58.5,282.5C 60.8333,278.167 64.1667,274.833 68.5,272.5 Z"/></g>
<g><path style="opacity:0.135" fill="#000000" d="M 121.5,272.5 C 123.027,272.427 124.027,273.094 124.5,274.5C 122.973,274.573 121.973,273.906 121.5,272.5 Z"/></g>
<g><path style="opacity:0.266" fill="#000000" d="M 71.5,273.5 C 59.5793,283.657 51.4126,296.324 47,311.5C 47.8037,300.581 51.637,290.914 58.5,282.5C 58.8333,285.167 59.1667,285.167 59.5,282.5C 60.1667,282.5 60.5,282.167 60.5,281.5C 61.1667,281.5 61.5,281.167 61.5,280.5C 62.1667,280.5 62.5,280.167 62.5,279.5C 63.1667,279.5 63.5,279.167 63.5,278.5C 64.1667,278.5 64.5,278.167 64.5,277.5C 65.1667,277.5 65.5,277.167 65.5,276.5C 66.1667,276.5 66.5,276.167 66.5,275.5C 68.1667,274.833 69.8333,274.167 71.5,273.5 Z"/></g>
<g><path style="opacity:0.198" fill="#000000" d="M 127.5,273.5 C 130.5,274.5 132.5,276.5 133.5,279.5C 131.167,277.833 129.167,275.833 127.5,273.5 Z"/></g>
<g><path style="opacity:0.147" fill="#000000" d="M 124.5,274.5 C 127.089,275.419 129.089,277.086 130.5,279.5C 127.911,278.581 125.911,276.914 124.5,274.5 Z"/></g>
<g><path style="opacity:0.173" fill="#000000" d="M 365.5,275.5 C 363.45,277.547 361.117,279.214 358.5,280.5C 359.167,279.5 359.833,278.5 360.5,277.5C 361.167,277.5 361.5,277.167 361.5,276.5C 362.833,276.167 364.167,275.833 365.5,275.5 Z"/></g>
<g><path style="opacity:0.258" fill="#000000" d="M 130.5,279.5 C 131.5,280.167 132.5,280.833 133.5,281.5C 133.5,282.167 133.833,282.5 134.5,282.5C 134.5,283.167 134.833,283.5 135.5,283.5C 135.5,284.167 135.5,284.833 135.5,285.5C 133.086,284.089 131.419,282.089 130.5,279.5 Z"/></g>
<g><path style="opacity:0.277" fill="#000000" d="M 133.5,279.5 C 137.88,283.234 141.047,287.901 143,293.5C 145.682,299.875 147.182,306.209 147.5,312.5C 144.711,304.258 141.378,296.258 137.5,288.5C 138.833,287.833 138.833,287.167 137.5,286.5C 137.5,285.833 137.167,285.5 136.5,285.5C 136.672,284.508 136.338,283.842 135.5,283.5C 134.833,283.5 134.5,283.167 134.5,282.5C 133.833,282.5 133.5,282.167 133.5,281.5C 133.5,280.833 133.5,280.167 133.5,279.5 Z"/></g>
<g><path style="opacity:0.233" fill="#000000" d="M 135.5,285.5 C 135.833,285.5 136.167,285.5 136.5,285.5C 137.167,285.5 137.5,285.833 137.5,286.5C 137.5,287.167 137.5,287.833 137.5,288.5C 136.094,288.027 135.427,287.027 135.5,285.5 Z"/></g>
<g><path style="opacity:0.403" fill="#000000" d="M 92.5,300.5 C 105.671,298.829 114.505,304.163 119,316.5C 119.893,336.606 110.393,345.106 90.5,342C 78.58,335.987 74.4134,326.487 78,313.5C 81.1625,307.164 85.9958,302.831 92.5,300.5 Z M 95.5,301.5 C 92.976,302.74 90.3093,303.907 87.5,305C 85.3333,307.167 83.1667,309.333 81,311.5C 75.9862,322.784 78.4862,331.95 88.5,339C 100.125,343.971 109.292,341.137 116,330.5C 119.918,313.249 113.085,303.583 95.5,301.5 Z M 94.5,307.5 C 88.7462,309.974 85.0795,314.307 83.5,320.5C 93.1437,321.498 102.81,321.832 112.5,321.5C 110.732,311.596 104.732,306.929 94.5,307.5 Z"/></g>
<g><path style="opacity:0.431" fill="#000000" d="M 385.5,300.5 C 398.332,299.156 406.832,304.489 411,316.5C 413.225,330.227 407.725,339.061 394.5,343C 378.879,343.546 370.212,336.046 368.5,320.5C 370,310.102 375.667,303.435 385.5,300.5 Z M 388.5,301.5 C 382.848,302.946 378.015,305.946 374,310.5C 368.118,321.85 370.284,331.35 380.5,339C 396.656,344.755 406.656,339.255 410.5,322.5C 409.022,309.355 401.688,302.355 388.5,301.5 Z M 386.5,307.5 C 380.232,310.025 376.899,314.691 376.5,321.5C 385.833,321.5 395.167,321.5 404.5,321.5C 402.94,311.286 396.94,306.619 386.5,307.5 Z"/></g>
<g><path style="opacity:0.832" fill="#000000" d="M 95.5,303.5 C 111.249,304.739 117.749,313.072 115,328.5C 109.249,338.784 100.749,341.951 89.5,338C 80.1575,331.052 77.9909,322.219 83,311.5C 86.3779,307.406 90.5446,304.739 95.5,303.5 Z M 94.5,307.5 C 88.7462,309.974 85.0795,314.307 83.5,320.5C 93.1437,321.498 102.81,321.832 112.5,321.5C 110.732,311.596 104.732,306.929 94.5,307.5 Z"/></g>
<g><path style="opacity:0.828" fill="#000000" d="M 387.5,303.5 C 405.107,305.274 411.274,314.607 406,331.5C 398.925,339.812 390.425,341.646 380.5,337C 371.76,329.476 370.26,320.642 376,310.5C 379.263,307.037 383.097,304.704 387.5,303.5 Z M 386.5,307.5 C 380.232,310.025 376.899,314.691 376.5,321.5C 385.833,321.5 395.167,321.5 404.5,321.5C 402.94,311.286 396.94,306.619 386.5,307.5 Z"/></g>
<g><path style="opacity:0.732" fill="#000000" d="M 165.5,323.5 C 221.168,323.333 276.834,323.5 332.5,324C 334.335,324.928 334.668,326.094 333.5,327.5C 273.503,328.667 213.503,328.833 153.5,328C 152.167,327 152.167,326 153.5,325C 157.688,324.824 161.688,324.324 165.5,323.5 Z"/></g>
</svg>
